<!-- icon666.com - MILLIONS OF FREE VECTOR ICONS --><svg id="Capa_1" enable-background="new 0 0 512 512" viewBox="0 0 512 512" xmlns="http://www.w3.org/2000/svg" xmlns:xlink="http://www.w3.org/1999/xlink"><linearGradient id="SVGID_1_" gradientUnits="userSpaceOnUse" x1="256" x2="256" y1="489" y2="187.993"><stop offset="0" stop-color="#00b59c"></stop><stop offset="1" stop-color="#9cffac"></stop></linearGradient><linearGradient id="SVGID_2_" gradientUnits="userSpaceOnUse" x1="256" x2="256" y1="368.003" y2="23"><stop offset="0" stop-color="#c3ffe8"></stop><stop offset=".9973" stop-color="#f0fff4"></stop></linearGradient><g><g><g><path d="m111.742 339.143c-5.566-2.344-12.041-1.055-16.348 3.252l-61 60c-2.812 2.812-4.394 6.621-4.394 10.605v61c0 8.291 6.709 15 15 15h61c8.291 0 15-6.709 15-15v-121c0-6.064-3.662-11.543-9.258-13.857zm114.258-61.143h-60c-8.291 0-15 6.709-15 15v181c0 8.291 6.709 15 15 15h60c8.291 0 15-6.709 15-15v-181c0-8.291-6.709-15-15-15zm121 0h-61c-8.291 0-15 6.709-15 15v181c0 8.291 6.709 15 15 15h61c8.291 0 15-6.709 15-15v-181c0-8.291-6.709-15-15-15zm125.742-88.857c-5.566-2.344-12.041-1.025-16.348 3.252l-60 60c-2.812 2.812-4.394 6.621-4.394 10.605v211c0 8.291 6.709 15 15 15h60c8.291 0 15-6.709 15-15v-271c0-6.064-3.662-11.543-9.258-13.857z" fill="url(#SVGID_1_)"></path></g></g><g><g><path d="m497 23h-90c-6.064 0-11.543 3.647-13.857 9.258s-1.025 12.056 3.252 16.348l14.561 14.575-95.069 94.819h-204.789c-3.984 0-7.822 1.582-10.635 4.409l-96.098 95.405c-2.783 2.813-4.365 6.622-4.365 10.591v84.595c0 6.064 3.662 11.543 9.258 13.857 5.454 2.294 11.988 1.108 16.348-3.252l116.605-115.605h204.789c3.984 0 7.793-1.582 10.605-4.395l116.895-116.894 11.895 11.895c4.336 4.307 10.781 5.596 16.348 3.252 5.595-2.315 9.257-7.794 9.257-13.858v-90c0-8.291-6.709-15-15-15z" fill="url(#SVGID_2_)"></path></g></g></g></svg>